<mxfile host="app.diagrams.net" modified="2023-08-19T20:04:36.812Z" agent="Mozilla/5.0 (Windows NT 10.0; Win64; x64) AppleWebKit/537.36 (KHTML, like Gecko) Chrome/116.0.0.0 Safari/537.36" version="21.6.8" etag="gDQ4V8La80mKh9l6kfhc" type="github">
  <diagram name="Страница — 1" id="MFzVNk8ej-EV7HhfCqpy">
    <mxGraphModel>
      <root>
        <mxCell id="0" />
        <mxCell id="1" parent="0" />
      </root>
    </mxGraphModel>
  </diagram>
</mxfile>
